<?xml version="1.0" encoding="iso-8859-1"?>
<!-- Generator: Adobe Illustrator 19.0.0, SVG Export Plug-In . SVG Version: 6.00 Build 0)  -->
<svg version="1.1" id="Layer_1" xmlns="http://www.w3.org/2000/svg" xmlns:xlink="http://www.w3.org/1999/xlink" x="0px" y="0px"
	 viewBox="0 0 496.8 496.8" style="enable-background:new 0 0 496.8 496.8;" xml:space="preserve">
<g>
	<path style="fill:#596366;" d="M464,398.8c0,3.2-2.4,5.6-5.6,5.6H5.6c-3.2,0-5.6-2.4-5.6-5.6l0,0c0-3.2,2.4-5.6,5.6-5.6h452.8
		C461.6,393.2,464,395.6,464,398.8L464,398.8z"/>
	<path style="fill:#596366;" d="M452.8,357.2c0,4.8-4,8-8,8H8c-4.8,0-8-4-8-8v-30.4c0-4.8,4-8,8-8h436c4.8,0,8,4,8,8v30.4H452.8z"/>
</g>
<path style="fill:#0DA5D3;" d="M491.2,301.2c0,8.8-7.2,16.8-16.8,16.8H16.8C8,318,0,310.8,0,301.2v-192c0-8.8,7.2-16.8,16.8-16.8
	L345.6,110c8.8,0,26.4,3.2,38.4,16.8L491.2,301.2z"/>
<path style="fill:#0C91C4;" d="M491.2,301.2c0,8.8-7.2,16.8-16.8,16.8H16.8C8,318,0,310.8,0,301.2V126.8C0,118,7.2,110,16.8,110
	h328.8c8.8,0,26.4,3.2,38.4,16.8L491.2,301.2z"/>
<path style="fill:#0B81AF;" d="M0,301.2C0,310,7.2,318,16.8,318h458.4c8.8,0,16.8-7.2,16.8-16.8l-22.4-36H0V301.2z"/>
<path style="fill:#447687;" d="M399.2,152.4H138.4c-8.8,0-16.8,7.2-16.8,16.8v11.2c0,8.8,7.2,16.8,16.8,16.8h288.8L399.2,152.4z"/>
<path style="fill:#FFA300;" d="M461.6,258c0,4-3.2,6.4-6.4,6.4l0,0c-4,0-6.4-3.2-6.4-6.4v-20c0-4,3.2-6.4,6.4-6.4l0,0
	c4,0,6.4,3.2,6.4,6.4V258z"/>
<path style="fill:#0C91C4;" d="M454.4,264.4c-4,0-6.4-3.2-6.4-6.4l-17.6-20c0-4,20.8-6.4,24-6.4l0,0"/>
<g>
	<path style="fill:#97BFCE;" d="M496,334.8c0,4.8-4,8.8-8.8,8.8H8.8c-4.8,0-8.8-4-8.8-8.8v-28c0-4.8,4-8.8,8.8-8.8H488
		c4.8,0,8.8,4,8.8,8.8v28H496z"/>
</g>
<path style="fill:#0C91C4;" d="M384,210c0.8,2.4-0.8,5.6-3.2,6.4l0,0c-2.4,0.8-5.6-0.8-6.4-3.2L352,150c-0.8-2.4,0.8-5.6,3.2-6.4
	l0,0c2.4-0.8,5.6,0.8,6.4,3.2L384,210z"/>
<path style="fill:#8AB4C1;" d="M496,334.8c0,4.8-4,8.8-8.8,8.8H8.8c-4.8,0-8.8-4-8.8-8.8"/>
<polygon style="fill:#97BFCE;" points="0,223.6 444,223.6 437.6,213.2 0,213.2 "/>
<g>
	<path style="fill:#0C91C4;" d="M184.8,206.8c0,3.2-2.4,5.6-5.6,5.6l0,0c-3.2,0-5.6-2.4-5.6-5.6v-62.4c0-3.2,2.4-5.6,5.6-5.6l0,0
		c3.2,0,5.6,2.4,5.6,5.6V206.8z"/>
	<path style="fill:#0C91C4;" d="M244.8,206.8c0,3.2-2.4,5.6-5.6,5.6l0,0c-3.2,0-5.6-2.4-5.6-5.6v-62.4c0-3.2,2.4-5.6,5.6-5.6l0,0
		c3.2,0,5.6,2.4,5.6,5.6V206.8z"/>
	<path style="fill:#0C91C4;" d="M305.6,206.8c0,3.2-2.4,5.6-5.6,5.6l0,0c-3.2,0-5.6-2.4-5.6-5.6v-62.4c0-3.2,2.4-5.6,5.6-5.6l0,0
		c3.2,0,5.6,2.4,5.6,5.6V206.8z"/>
</g>
<polygon style="fill:#97BFCE;" points="0,234 449.6,234 448.8,231.6 0,231.6 "/>
<path style="fill:#249AB5;" d="M103.2,328.4V162.8c0-6.4-4.8-11.2-11.2-11.2H26.4c-6.4,0-11.2,4.8-11.2,11.2v165.6H103.2z"/>
<path style="fill:#43B9DD;" d="M92,161.2H26.4c-6.4,0-11.2,4.8-11.2,11.2v156h87.2v-156C103.2,166.8,98.4,161.2,92,161.2z"/>
<path style="fill:#37ADCC;" d="M15.2,317.2H16h86.4v-52.8H15.2V317.2z"/>
<rect x="15.2" y="298" style="fill:#32A4CC;" width="87.2" height="30.4"/>
<rect x="57.6" y="143.6" style="fill:#0C91C4;" width="3.2" height="182.4"/>
<g>
	<path style="fill:#51859B;" d="M51.2,239.6c0,1.6-0.8,2.4-2.4,2.4H35.2c-1.6,0-2.4-0.8-2.4-2.4l0,0c0-1.6,0.8-2.4,2.4-2.4h13.6
		C50.4,238,51.2,238.8,51.2,239.6L51.2,239.6z"/>
	<path style="fill:#51859B;" d="M85.6,239.6c0,1.6-0.8,2.4-2.4,2.4H69.6c-1.6,0-2.4-0.8-2.4-2.4l0,0c0-1.6,0.8-2.4,2.4-2.4h13.6
		C84.8,238,85.6,238.8,85.6,239.6L85.6,239.6z"/>
</g>
<path d="M0.8,377.2c0-12.8,10.4-24,24-24c12.8,0,24,10.4,24,24"/>
<path style="fill:#ADC4C3;" d="M49.6,377.2h-2.4c0-12.8-10.4-22.4-22.4-22.4c-12.8,0-22.4,10.4-22.4,22.4H0
	c0-13.6,11.2-24.8,24.8-24.8C38.4,353.2,49.6,363.6,49.6,377.2z"/>
<circle style="fill:#203547;" cx="24.8" cy="378" r="21.6"/>
<path style="fill:#122130;" d="M40,363.6c8,8,8,21.6,0,30.4s-21.6,8-30.4,0"/>
<circle style="fill:#6E7577;" cx="24.8" cy="378" r="13.6"/>
<path style="fill:#4C5456;" d="M34.4,369.2c5.6,5.6,5.6,13.6,0,19.2s-13.6,5.6-19.2,0"/>
<circle style="fill:#CED8DD;" cx="24.8" cy="378" r="12"/>
<path style="fill:#B2BBC1;" d="M32.8,370c4.8,4.8,4.8,12,0,16.8s-12,4.8-16.8,0"/>
<path style="opacity:0.2;fill:#888F91;enable-background:new    ;" d="M30.4,378c0,3.2-2.4,6.4-5.6,6.4c-3.2,0-5.6-3.2-5.6-6.4
	c0-3.2,2.4-5.6,5.6-5.6C28,373.2,30.4,375.6,30.4,378z"/>
<circle style="fill:#E7EFF2;" cx="24.8" cy="378" r="5.6"/>
<path style="fill:#DAE6EA;" d="M24.8,373.2c3.2,0,5.6,2.4,5.6,5.6s-2.4,5.6-5.6,5.6"/>
<path style="fill:#666E70;" d="M24.8,366.8c-0.8,0-0.8,0-1.6,0c0,1.6,0.8,3.2,1.6,3.2s1.6-1.6,1.6-3.2
	C25.6,366.8,24.8,366.8,24.8,366.8z"/>
<path style="fill:#535A5B;" d="M24.8,370c0.8,0,1.6-1.6,1.6-3.2c-0.8,0-0.8,0-1.6,0"/>
<path style="fill:#666E70;" d="M23.2,390c0.8,0,2.4,0,3.2,0c0-1.6-0.8-3.2-1.6-3.2C24,386.8,23.2,388.4,23.2,390z"/>
<path style="fill:#535A5B;" d="M26.4,390c0-1.6-0.8-3.2-1.6-3.2"/>
<path style="fill:#666E70;" d="M15.2,371.6c1.6,0.8,2.4,1.6,3.2,0.8c0.8-0.8,0-1.6-0.8-3.2C16.8,370,16,370.8,15.2,371.6z"/>
<path style="fill:#535A5B;" d="M18.4,372.4c0.8-0.8,0-1.6-0.8-3.2"/>
<path style="fill:#666E70;" d="M33.6,385.2c-0.8-0.8-2.4-0.8-3.2-0.8c-0.8,0.8,0,1.6,0.8,3.2c0.8,0,0.8-0.8,1.6-0.8
	C33.6,386,33.6,386,33.6,385.2z"/>
<path style="fill:#535A5B;" d="M32.8,386.8c0,0,0.8-0.8,0.8-1.6c-0.8-0.8-2.4-0.8-3.2-0.8"/>
<path style="fill:#666E70;" d="M12.8,379.6c1.6,0,3.2-0.8,3.2-1.6s-1.6-0.8-3.2-1.6c0,0.8,0,0.8,0,1.6
	C12.8,378.8,12.8,379.6,12.8,379.6z"/>
<path style="fill:#535A5B;" d="M16,378c0-0.8-1.6-1.6-3.2-1.6c0,0.8,0,0.8,0,1.6"/>
<path style="fill:#666E70;" d="M33.6,378c0,0.8,1.6,1.6,3.2,1.6c0-0.8,0-2.4,0-3.2C34.4,377.2,33.6,378,33.6,378z"/>
<path style="fill:#535A5B;" d="M36,376.4c-1.6,0-3.2,0.8-3.2,1.6"/>
<path style="fill:#666E70;" d="M15.2,385.2c0.8,0.8,1.6,1.6,2.4,2.4c0.8-1.6,1.6-2.4,0.8-3.2C17.6,384.4,16.8,384.4,15.2,385.2z"/>
<path style="fill:#535A5B;" d="M17.6,387.6c0.8-1.6,1.6-2.4,0.8-3.2"/>
<path style="fill:#666E70;" d="M32,369.2c-0.8,1.6-1.6,2.4-0.8,3.2c0.8,0.8,1.6,0,3.2-0.8C33.6,370.8,32.8,370,32,369.2z"/>
<path style="fill:#535A5B;" d="M32,369.2c-0.8,1.6-1.6,2.4-0.8,3.2"/>
<path d="M57.6,377.2c0-12.8,10.4-24,24-24c12.8,0,24,10.4,24,24"/>
<path style="fill:#ADC4C3;" d="M105.6,377.2H104c0-12.8-10.4-22.4-22.4-22.4c-12.8,0-22.4,10.4-22.4,22.4h-2.4
	c0-13.6,11.2-24.8,24.8-24.8C94.4,353.2,105.6,363.6,105.6,377.2z"/>
<path style="fill:#203547;" d="M102.4,378c0,12-9.6,21.6-21.6,21.6S59.2,390,59.2,378s9.6-21.6,21.6-21.6
	C92.8,357.2,102.4,366.8,102.4,378z"/>
<path style="fill:#122130;" d="M96,363.6c8,8,8,21.6,0,30.4c-8,8-21.6,8-30.4,0"/>
<path style="fill:#6E7577;" d="M94.4,378c0,7.2-6.4,13.6-13.6,13.6s-13.6-6.4-13.6-13.6s6.4-13.6,13.6-13.6
	C88.8,365.2,94.4,370.8,94.4,378z"/>
<path style="fill:#4C5456;" d="M90.4,369.2c5.6,5.6,5.6,13.6,0,19.2s-13.6,5.6-19.2,0"/>
<path style="fill:#CED8DD;" d="M92.8,378c0,6.4-5.6,12-12,12s-12-5.6-12-12s5.6-12,12-12C88,366.8,92.8,371.6,92.8,378z"/>
<path style="fill:#B2BBC1;" d="M89.6,370c4.8,4.8,4.8,12,0,16.8s-12,4.8-16.8,0"/>
<path style="opacity:0.2;fill:#888F91;enable-background:new    ;" d="M86.4,378c0,3.2-2.4,6.4-5.6,6.4s-5.6-3.2-5.6-6.4
	c0-3.2,2.4-5.6,5.6-5.6C84,373.2,86.4,375.6,86.4,378z"/>
<circle style="fill:#E7EFF2;" cx="80.8" cy="378" r="5.6"/>
<path style="fill:#DAE6EA;" d="M80.8,373.2c3.2,0,5.6,2.4,5.6,5.6s-2.4,5.6-5.6,5.6"/>
<path style="fill:#666E70;" d="M80.8,366.8c-0.8,0-0.8,0-1.6,0c0,1.6,0.8,3.2,1.6,3.2c0.8,0,1.6-1.6,1.6-3.2
	C82.4,366.8,81.6,366.8,80.8,366.8z"/>
<path style="fill:#535A5B;" d="M80.8,370c0.8,0,1.6-1.6,1.6-3.2c-0.8,0-0.8,0-1.6,0"/>
<path style="fill:#666E70;" d="M80,390c0.8,0,2.4,0,3.2,0c0-1.6-0.8-3.2-1.6-3.2S80,388.4,80,390z"/>
<path style="fill:#535A5B;" d="M82.4,390c0-1.6-0.8-3.2-1.6-3.2"/>
<path style="fill:#666E70;" d="M72,371.6c1.6,0.8,2.4,1.6,3.2,0.8c0.8-0.8,0-1.6-0.8-3.2C73.6,370,72.8,370.8,72,371.6z"/>
<path style="fill:#535A5B;" d="M75.2,372.4c0.8-0.8,0-1.6-0.8-3.2"/>
<path style="fill:#666E70;" d="M90.4,385.2c-1.6-0.8-2.4-0.8-3.2-0.8c-0.8,0.8,0,1.6,0.8,3.2c0.8,0,0.8-0.8,1.6-0.8
	C89.6,386,90.4,386,90.4,385.2z"/>
<path style="fill:#535A5B;" d="M89.6,386.8c0,0,0.8-0.8,0.8-1.6c-1.6-0.8-2.4-0.8-3.2-0.8"/>
<path style="fill:#666E70;" d="M69.6,379.6c1.6,0,3.2-0.8,3.2-1.6s-1.6-0.8-3.2-1.6c0,0.8,0,0.8,0,1.6
	C69.6,378.8,69.6,379.6,69.6,379.6z"/>
<path style="fill:#535A5B;" d="M72.8,378c0-0.8-1.6-1.6-3.2-1.6c0,0.8,0,0.8,0,1.6"/>
<path style="fill:#666E70;" d="M89.6,378c0,0.8,1.6,1.6,3.2,1.6c0-0.8,0-2.4,0-3.2C91.2,377.2,89.6,378,89.6,378z"/>
<path style="fill:#535A5B;" d="M92.8,376.4c-1.6,0-3.2,0.8-3.2,1.6"/>
<path style="fill:#666E70;" d="M72,385.2c0.8,0.8,1.6,1.6,2.4,2.4c0.8-1.6,1.6-2.4,0.8-3.2C74.4,384.4,72.8,384.4,72,385.2z"/>
<path style="fill:#535A5B;" d="M74.4,387.6c0.8-1.6,1.6-2.4,0.8-3.2"/>
<path style="fill:#666E70;" d="M88,369.2c-0.8,1.6-1.6,2.4-0.8,3.2c0.8,0.8,1.6,0,3.2-0.8C89.6,370.8,88.8,370,88,369.2z"/>
<path style="fill:#535A5B;" d="M88,369.2c-0.8,1.6-1.6,2.4-0.8,3.2"/>
<path d="M114.4,377.2c0-12.8,10.4-24,24-24c12.8,0,24,10.4,24,24"/>
<path style="fill:#ADC4C3;" d="M162.4,377.2h-1.6c0-12.8-10.4-22.4-22.4-22.4c-12.8,0-22.4,10.4-22.4,22.4h-1.6
	c0-13.6,11.2-24.8,24.8-24.8C151.2,353.2,162.4,363.6,162.4,377.2z"/>
<circle style="fill:#203547;" cx="137.6" cy="378" r="21.6"/>
<path style="fill:#122130;" d="M152.8,363.6c8,8,8,21.6,0,30.4s-21.6,8-30.4,0"/>
<circle style="fill:#6E7577;" cx="137.6" cy="378" r="13.6"/>
<path style="fill:#4C5456;" d="M147.2,369.2c5.6,5.6,5.6,13.6,0,19.2s-13.6,5.6-19.2,0"/>
<path style="fill:#CED8DD;" d="M149.6,378c0,6.4-5.6,12-12,12s-12-5.6-12-12s5.6-12,12-12C144,366.8,149.6,371.6,149.6,378z"/>
<path style="fill:#B2BBC1;" d="M146.4,370c4.8,4.8,4.8,12,0,16.8s-12,4.8-16.8,0"/>
<path style="opacity:0.2;fill:#888F91;enable-background:new    ;" d="M143.2,378c0,3.2-2.4,6.4-5.6,6.4c-3.2,0-5.6-3.2-5.6-6.4
	c0-3.2,2.4-5.6,5.6-5.6C140.8,373.2,143.2,375.6,143.2,378z"/>
<circle style="fill:#E7EFF2;" cx="137.6" cy="378" r="5.6"/>
<path style="fill:#DAE6EA;" d="M137.6,373.2c3.2,0,5.6,2.4,5.6,5.6s-2.4,5.6-5.6,5.6"/>
<path style="fill:#666E70;" d="M137.6,366.8c-0.8,0-0.8,0-1.6,0c0,1.6,0.8,3.2,1.6,3.2s1.6-1.6,1.6-3.2
	C138.4,366.8,138.4,366.8,137.6,366.8z"/>
<path style="fill:#535A5B;" d="M137.6,370c0.8,0,1.6-1.6,1.6-3.2c-0.8,0-0.8,0-1.6,0"/>
<path style="fill:#666E70;" d="M136,390c0.8,0,2.4,0,3.2,0c0-1.6-0.8-3.2-1.6-3.2C136.8,386.8,136,388.4,136,390z"/>
<path style="fill:#535A5B;" d="M139.2,390c0-1.6-0.8-3.2-1.6-3.2"/>
<path style="fill:#666E70;" d="M128,371.6c1.6,0.8,2.4,1.6,3.2,0.8c0.8-0.8,0-1.6-0.8-3.2C129.6,370,128.8,370.8,128,371.6z"/>
<path style="fill:#535A5B;" d="M131.2,372.4c0.8-0.8,0-1.6-0.8-3.2"/>
<path style="fill:#666E70;" d="M147.2,385.2c-1.6-0.8-2.4-0.8-3.2-0.8c-0.8,0.8,0,1.6,0.8,3.2c0.8,0,0.8-0.8,1.6-0.8
	C146.4,386,146.4,386,147.2,385.2z"/>
<path style="fill:#535A5B;" d="M146.4,386.8c0,0,0.8-0.8,0.8-1.6c-1.6-0.8-2.4-0.8-3.2-0.8"/>
<path style="fill:#666E70;" d="M126.4,379.6c1.6,0,3.2-0.8,3.2-1.6s-1.6-0.8-3.2-1.6c0,0.8,0,0.8,0,1.6
	C125.6,378.8,126.4,379.6,126.4,379.6z"/>
<path style="fill:#535A5B;" d="M128.8,378c0-0.8-1.6-1.6-3.2-1.6c0,0.8,0,0.8,0,1.6"/>
<path style="fill:#666E70;" d="M146.4,378c0,0.8,1.6,1.6,3.2,1.6c0-0.8,0-2.4,0-3.2C148,377.2,146.4,378,146.4,378z"/>
<path style="fill:#535A5B;" d="M149.6,376.4c-1.6,0-3.2,0.8-3.2,1.6"/>
<path style="fill:#666E70;" d="M128,385.2c0.8,0.8,1.6,1.6,2.4,2.4c0.8-1.6,1.6-2.4,0.8-3.2C131.2,384.4,129.6,384.4,128,385.2z"/>
<path style="fill:#535A5B;" d="M130.4,387.6c0.8-1.6,1.6-2.4,0.8-3.2"/>
<path style="fill:#666E70;" d="M144.8,369.2c-0.8,1.6-1.6,2.4-0.8,3.2c0.8,0.8,1.6,0,3.2-0.8C146.4,370.8,145.6,370,144.8,369.2z"/>
<path style="fill:#535A5B;" d="M144.8,369.2c-0.8,1.6-1.6,2.4-0.8,3.2"/>
<path d="M170.4,377.2c0-12.8,10.4-24,24-24c12.8,0,24,10.4,24,24"/>
<path style="fill:#ADC4C3;" d="M219.2,377.2h-1.6c0-12.8-10.4-22.4-22.4-22.4c-12.8,0-22.4,10.4-22.4,22.4h-1.6
	c0-13.6,11.2-24.8,24.8-24.8C208,353.2,219.2,363.6,219.2,377.2z"/>
<circle style="fill:#203547;" cx="194.4" cy="378" r="21.6"/>
<path style="fill:#122130;" d="M209.6,363.6c8,8,8,21.6,0,30.4c-8,8-21.6,8-30.4,0"/>
<circle style="fill:#6E7577;" cx="194.4" cy="378" r="13.6"/>
<path style="fill:#4C5456;" d="M204,369.2c5.6,5.6,5.6,13.6,0,19.2s-13.6,5.6-19.2,0"/>
<circle style="fill:#CED8DD;" cx="194.4" cy="378" r="12"/>
<path style="fill:#B2BBC1;" d="M202.4,370c4.8,4.8,4.8,12,0,16.8s-12,4.8-16.8,0"/>
<path style="opacity:0.2;fill:#888F91;enable-background:new    ;" d="M200,378c0,3.2-2.4,6.4-5.6,6.4s-5.6-3.2-5.6-6.4
	c0-3.2,2.4-5.6,5.6-5.6S200,375.6,200,378z"/>
<circle style="fill:#E7EFF2;" cx="194.4" cy="378" r="5.6"/>
<path style="fill:#DAE6EA;" d="M194.4,373.2c3.2,0,5.6,2.4,5.6,5.6s-2.4,5.6-5.6,5.6"/>
<path style="fill:#666E70;" d="M194.4,366.8c-0.8,0-0.8,0-1.6,0c0,1.6,0.8,3.2,1.6,3.2s1.6-1.6,1.6-3.2
	C195.2,366.8,194.4,366.8,194.4,366.8z"/>
<path style="fill:#535A5B;" d="M194.4,370c0.8,0,1.6-1.6,1.6-3.2c-0.8,0-0.8,0-1.6,0"/>
<path style="fill:#666E70;" d="M192.8,390c0.8,0,2.4,0,3.2,0c0-1.6-0.8-3.2-1.6-3.2C193.6,386.8,192.8,388.4,192.8,390z"/>
<path style="fill:#535A5B;" d="M196,390c0-1.6-0.8-3.2-1.6-3.2"/>
<path style="fill:#666E70;" d="M184.8,371.6c1.6,0.8,2.4,1.6,3.2,0.8c0.8-0.8,0-1.6-0.8-3.2C186.4,370,185.6,370.8,184.8,371.6z"/>
<path style="fill:#535A5B;" d="M188,372.4c0.8-0.8,0-1.6-0.8-3.2"/>
<path style="fill:#666E70;" d="M203.2,385.2c-0.8-0.8-2.4-0.8-2.4-0.8c-0.8,0.8,0,1.6,0.8,3.2c0.8,0,0.8-0.8,1.6-0.8
	C203.2,386,203.2,386,203.2,385.2z"/>
<path style="fill:#535A5B;" d="M202.4,386.8c0,0,0.8-0.8,0.8-1.6c-0.8-0.8-2.4-0.8-2.4-0.8"/>
<path style="fill:#666E70;" d="M182.4,379.6c1.6,0,3.2-0.8,3.2-1.6s-1.6-0.8-3.2-1.6c0,0.8,0,0.8,0,1.6
	C182.4,378.8,182.4,379.6,182.4,379.6z"/>
<path style="fill:#535A5B;" d="M185.6,378c0-0.8-1.6-1.6-3.2-1.6c0,0.8,0,0.8,0,1.6"/>
<path style="fill:#666E70;" d="M203.2,378c0,0.8,1.6,1.6,3.2,1.6c0-0.8,0-2.4,0-3.2C204,377.2,203.2,378,203.2,378z"/>
<path style="fill:#535A5B;" d="M205.6,376.4c-1.6,0-3.2,0.8-3.2,1.6"/>
<path style="fill:#666E70;" d="M184.8,385.2c0.8,0.8,1.6,1.6,2.4,2.4c0.8-1.6,1.6-2.4,0.8-3.2C187.2,384.4,186.4,384.4,184.8,385.2z
	"/>
<path style="fill:#535A5B;" d="M187.2,387.6c0.8-1.6,1.6-2.4,0.8-3.2"/>
<path style="fill:#666E70;" d="M201.6,369.2c-0.8,1.6-1.6,2.4-0.8,3.2c0.8,0.8,1.6,0,3.2-0.8C203.2,370.8,202.4,370,201.6,369.2z"/>
<path style="fill:#535A5B;" d="M201.6,369.2c-0.8,1.6-1.6,2.4-0.8,3.2"/>
<path d="M227.2,377.2c0-12.8,10.4-24,24-24c12.8,0,24,10.4,24,24"/>
<path style="fill:#ADC4C3;" d="M275.2,377.2h-1.6c0-12.8-10.4-22.4-22.4-22.4c-12.8,0-22.4,10.4-22.4,22.4h-1.6
	c0-13.6,11.2-24.8,24.8-24.8C264,353.2,275.2,363.6,275.2,377.2z"/>
<circle style="fill:#203547;" cx="250.4" cy="378" r="21.6"/>
<path style="fill:#122130;" d="M265.6,363.6c8,8,8,21.6,0,30.4s-21.6,8-30.4,0"/>
<circle style="fill:#6E7577;" cx="250.4" cy="378" r="13.6"/>
<path style="fill:#4C5456;" d="M260,369.2c5.6,5.6,5.6,13.6,0,19.2s-13.6,5.6-19.2,0"/>
<circle style="fill:#CED8DD;" cx="250.4" cy="378" r="12"/>
<path style="fill:#B2BBC1;" d="M259.2,370c4.8,4.8,4.8,12,0,16.8s-12,4.8-16.8,0"/>
<path style="opacity:0.2;fill:#888F91;enable-background:new    ;" d="M256,378c0,3.2-2.4,6.4-5.6,6.4c-3.2,0-5.6-3.2-5.6-6.4
	c0-3.2,2.4-5.6,5.6-5.6C253.6,373.2,256,375.6,256,378z"/>
<circle style="fill:#E7EFF2;" cx="250.4" cy="378" r="5.6"/>
<path style="fill:#DAE6EA;" d="M250.4,373.2c3.2,0,5.6,2.4,5.6,5.6s-2.4,5.6-5.6,5.6"/>
<path style="fill:#666E70;" d="M250.4,366.8c-0.8,0-0.8,0-1.6,0c0,1.6,0.8,3.2,1.6,3.2c0.8,0,1.6-1.6,1.6-3.2
	C252,366.8,251.2,366.8,250.4,366.8z"/>
<path style="fill:#535A5B;" d="M250.4,370c0.8,0,1.6-1.6,1.6-3.2c-0.8,0-0.8,0-1.6,0"/>
<path style="fill:#666E70;" d="M249.6,390c0.8,0,2.4,0,3.2,0c0-1.6-0.8-3.2-1.6-3.2S249.6,388.4,249.6,390z"/>
<path style="fill:#535A5B;" d="M252,390c0-1.6-0.8-3.2-1.6-3.2"/>
<path style="fill:#666E70;" d="M241.6,371.6c1.6,0.8,2.4,1.6,3.2,0.8c0.8-0.8,0-1.6-0.8-3.2C243.2,370,242.4,370.8,241.6,371.6z"/>
<path style="fill:#535A5B;" d="M244.8,372.4c0.8-0.8,0-1.6-0.8-3.2"/>
<path style="fill:#666E70;" d="M260,385.2c-1.6-0.8-2.4-0.8-3.2-0.8c-0.8,0.8,0,1.6,0.8,3.2c0.8,0,0.8-0.8,1.6-0.8
	C259.2,386,260,386,260,385.2z"/>
<path style="fill:#535A5B;" d="M259.2,386.8c0,0,0.8-0.8,0.8-1.6c-1.6-0.8-2.4-0.8-3.2-0.8"/>
<path style="fill:#666E70;" d="M239.2,379.6c1.6,0,3.2-0.8,3.2-1.6s-1.6-1.6-3.2-1.6c0,0.8,0,0.8,0,1.6
	C239.2,378.8,239.2,379.6,239.2,379.6z"/>
<path style="fill:#535A5B;" d="M242.4,378c0-0.8-1.6-1.6-3.2-1.6c0,0.8,0,0.8,0,1.6"/>
<path style="fill:#666E70;" d="M259.2,378c0,0.8,1.6,1.6,3.2,1.6c0-0.8,0-2.4,0-3.2C260.8,377.2,259.2,378,259.2,378z"/>
<path style="fill:#535A5B;" d="M262.4,376.4c-1.6,0-3.2,0.8-3.2,1.6"/>
<path style="fill:#666E70;" d="M241.6,385.2c0.8,0.8,1.6,1.6,2.4,2.4c0.8-1.6,1.6-2.4,0.8-3.2C244,384.4,243.2,384.4,241.6,385.2z"
	/>
<path style="fill:#535A5B;" d="M244,387.6c0.8-1.6,1.6-2.4,0.8-3.2"/>
<path style="fill:#666E70;" d="M257.6,369.2c-0.8,1.6-1.6,2.4-0.8,3.2c0.8,0.8,1.6,0,3.2-0.8C259.2,370.8,258.4,370,257.6,369.2z"/>
<path style="fill:#535A5B;" d="M257.6,369.2c-0.8,1.6-1.6,2.4-0.8,3.2"/>
<path d="M284,377.2c0-12.8,10.4-24,24-24s24,10.4,24,24"/>
<path style="fill:#ADC4C3;" d="M332,377.2h-1.6c0-12.8-10.4-22.4-22.4-22.4c-12.8,0-22.4,10.4-22.4,22.4H284
	c0-13.6,11.2-24.8,24.8-24.8C320.8,353.2,332,363.6,332,377.2z"/>
<circle style="fill:#203547;" cx="307.2" cy="378" r="21.6"/>
<path style="fill:#122130;" d="M322.4,363.6c8,8,8,21.6,0,30.4c-8,8-21.6,8-30.4,0"/>
<circle style="fill:#6E7577;" cx="307.2" cy="378" r="13.6"/>
<path style="fill:#4C5456;" d="M316.8,369.2c5.6,5.6,5.6,13.6,0,19.2s-13.6,5.6-19.2,0"/>
<circle style="fill:#CED8DD;" cx="307.2" cy="378" r="12"/>
<path style="fill:#B2BBC1;" d="M316,370c4.8,4.8,4.8,12,0,16.8s-12,4.8-16.8,0"/>
<path style="opacity:0.2;fill:#888F91;enable-background:new    ;" d="M312.8,378c0,3.2-2.4,6.4-5.6,6.4s-5.6-3.2-5.6-6.4
	c0-3.2,2.4-5.6,5.6-5.6C310.4,373.2,312.8,375.6,312.8,378z"/>
<circle style="fill:#E7EFF2;" cx="307.2" cy="378" r="5.6"/>
<path style="fill:#DAE6EA;" d="M307.2,373.2c3.2,0,5.6,2.4,5.6,5.6s-2.4,5.6-5.6,5.6"/>
<path style="fill:#666E70;" d="M307.2,366.8c-0.8,0-0.8,0-1.6,0c0,1.6,0.8,3.2,1.6,3.2c0.8,0,1.6-1.6,1.6-3.2
	C308,366.8,308,366.8,307.2,366.8z"/>
<path style="fill:#535A5B;" d="M307.2,370c0.8,0,1.6-1.6,1.6-3.2c-0.8,0-0.8,0-1.6,0"/>
<path style="fill:#666E70;" d="M305.6,390c0.8,0,2.4,0,3.2,0c0-1.6-0.8-3.2-1.6-3.2S305.6,388.4,305.6,390z"/>
<path style="fill:#535A5B;" d="M308.8,390c0-1.6-0.8-3.2-1.6-3.2"/>
<path style="fill:#666E70;" d="M297.6,371.6c1.6,0.8,2.4,1.6,3.2,0.8c0.8-0.8,0-1.6-0.8-3.2C299.2,370,298.4,370.8,297.6,371.6z"/>
<path style="fill:#535A5B;" d="M300.8,372.4c0.8-0.8,0-1.6-0.8-3.2"/>
<path style="fill:#666E70;" d="M316.8,385.2c-1.6-0.8-2.4-0.8-3.2-0.8c-0.8,0.8,0,1.6,0.8,3.2c0.8,0,0.8-0.8,1.6-0.8
	C316,386,316,386,316.8,385.2z"/>
<path style="fill:#535A5B;" d="M316,386.8c0,0,0.8-0.8,0.8-1.6c-1.6-0.8-2.4-0.8-3.2-0.8"/>
<path style="fill:#666E70;" d="M296,379.6c1.6,0,3.2-0.8,3.2-1.6s-1.6-0.8-3.2-1.6c0,0.8,0,0.8,0,1.6
	C295.2,378.8,296,379.6,296,379.6z"/>
<path style="fill:#535A5B;" d="M298.4,378c0-0.8-1.6-1.6-3.2-1.6c0,0.8,0,0.8,0,1.6"/>
<path style="fill:#666E70;" d="M316,378c0,0.8,1.6,1.6,3.2,1.6c0-0.8,0-2.4,0-3.2C317.6,377.2,316,378,316,378z"/>
<path style="fill:#535A5B;" d="M319.2,376.4c-1.6,0-3.2,0.8-3.2,1.6"/>
<path style="fill:#666E70;" d="M297.6,385.2c0.8,0.8,1.6,1.6,2.4,2.4c0.8-1.6,1.6-2.4,0.8-3.2C300.8,384.4,299.2,384.4,297.6,385.2z
	"/>
<path style="fill:#535A5B;" d="M300,387.6c0.8-1.6,1.6-2.4,0.8-3.2"/>
<path style="fill:#666E70;" d="M314.4,369.2c-0.8,1.6-1.6,2.4-0.8,3.2c0.8,0.8,1.6,0,3.2-0.8C316,370.8,315.2,370,314.4,369.2z"/>
<path style="fill:#535A5B;" d="M314.4,369.2c-0.8,1.6-1.6,2.4-0.8,3.2"/>
<path d="M340,377.2c0-12.8,10.4-24,24-24c12.8,0,24,10.4,24,24"/>
<path style="fill:#ADC4C3;" d="M388.8,377.2h-1.6c0-12.8-10.4-22.4-22.4-22.4c-12.8,0-22.4,10.4-22.4,22.4h-1.6
	c0-13.6,11.2-24.8,24.8-24.8C377.6,353.2,388.8,363.6,388.8,377.2z"/>
<circle style="fill:#203547;" cx="364" cy="378" r="21.6"/>
<path style="fill:#122130;" d="M379.2,363.6c8,8,8,21.6,0,30.4c-8,8-21.6,8-30.4,0"/>
<circle style="fill:#6E7577;" cx="364" cy="378" r="13.6"/>
<path style="fill:#4C5456;" d="M373.6,369.2c5.6,5.6,5.6,13.6,0,19.2s-13.6,5.6-19.2,0"/>
<circle style="fill:#CED8DD;" cx="364" cy="378" r="12"/>
<path style="fill:#B2BBC1;" d="M372,370c4.8,4.8,4.8,12,0,16.8s-12,4.8-16.8,0"/>
<path style="opacity:0.2;fill:#888F91;enable-background:new    ;" d="M369.6,378c0,3.2-2.4,6.4-5.6,6.4s-5.6-3.2-5.6-6.4
	c0-3.2,2.4-5.6,5.6-5.6C367.2,373.2,369.6,375.6,369.6,378z"/>
<circle style="fill:#E7EFF2;" cx="364" cy="378" r="5.6"/>
<path style="fill:#DAE6EA;" d="M364,373.2c3.2,0,5.6,2.4,5.6,5.6s-2.4,5.6-5.6,5.6"/>
<path style="fill:#666E70;" d="M364,366.8c-0.8,0-0.8,0-1.6,0c0,1.6,0.8,3.2,1.6,3.2c0.8,0,1.6-1.6,1.6-3.2
	C364.8,366.8,364.8,366.8,364,366.8z"/>
<path style="fill:#535A5B;" d="M364,370c0.8,0,1.6-1.6,1.6-3.2c-0.8,0-0.8,0-1.6,0"/>
<path style="fill:#666E70;" d="M362.4,390c0.8,0,2.4,0,3.2,0c0-1.6-0.8-3.2-1.6-3.2C363.2,386.8,362.4,388.4,362.4,390z"/>
<path style="fill:#535A5B;" d="M365.6,390c0-1.6-0.8-3.2-1.6-3.2"/>
<path style="fill:#666E70;" d="M354.4,371.6c1.6,0.8,2.4,1.6,3.2,0.8c0.8-0.8,0-1.6-0.8-3.2C356,370,355.2,370.8,354.4,371.6z"/>
<path style="fill:#535A5B;" d="M357.6,372.4c0.8-0.8,0-1.6-0.8-3.2"/>
<path style="fill:#666E70;" d="M372.8,385.2c-0.8-0.8-2.4-0.8-2.4-0.8c-0.8,0.8,0,1.6,0.8,3.2c0.8,0,0.8-0.8,1.6-0.8
	C372.8,386,372.8,386,372.8,385.2z"/>
<path style="fill:#535A5B;" d="M372,386.8c0,0,0.8-0.8,0.8-1.6c-0.8-0.8-2.4-0.8-2.4-0.8"/>
<path style="fill:#666E70;" d="M352,379.6c1.6,0,3.2-0.8,3.2-1.6s-1.6-0.8-3.2-1.6c0,0.8,0,0.8,0,1.6C352,378.8,352,379.6,352,379.6
	z"/>
<path style="fill:#535A5B;" d="M355.2,378c0-0.8-1.6-1.6-3.2-1.6c0,0.8,0,0.8,0,1.6"/>
<path style="fill:#666E70;" d="M372.8,378c0,0.8,1.6,1.6,3.2,1.6c0-0.8,0-2.4,0-3.2C373.6,377.2,372.8,378,372.8,378z"/>
<path style="fill:#535A5B;" d="M375.2,376.4c-1.6,0-3.2,0.8-3.2,1.6"/>
<path style="fill:#666E70;" d="M354.4,385.2c0.8,0.8,1.6,1.6,2.4,2.4c0.8-1.6,1.6-2.4,0.8-3.2C356.8,384.4,356,384.4,354.4,385.2z"
	/>
<path style="fill:#535A5B;" d="M356.8,387.6c0.8-1.6,1.6-2.4,0.8-3.2"/>
<path style="fill:#666E70;" d="M371.2,369.2c-0.8,1.6-1.6,2.4-0.8,3.2c0.8,0.8,1.6,0,3.2-0.8C372.8,370.8,372,370,371.2,369.2z"/>
<path style="fill:#535A5B;" d="M371.2,369.2c-0.8,1.6-1.6,2.4-0.8,3.2"/>
<path d="M396.8,377.2c0-12.8,10.4-24,24-24c12.8,0,24,10.4,24,24"/>
<path style="fill:#ADC4C3;" d="M444.8,377.2h-1.6c0-12.8-10.4-22.4-22.4-22.4c-12.8,0-22.4,10.4-22.4,22.4h-1.6
	c0-13.6,11.2-24.8,24.8-24.8C433.6,353.2,444.8,363.6,444.8,377.2z"/>
<circle style="fill:#203547;" cx="420.8" cy="378" r="21.6"/>
<path style="fill:#122130;" d="M435.2,363.6c8,8,8,21.6,0,30.4c-8,8-21.6,8-30.4,0"/>
<circle style="fill:#6E7577;" cx="420.8" cy="378" r="13.6"/>
<path style="fill:#4C5456;" d="M429.6,369.2c5.6,5.6,5.6,13.6,0,19.2s-13.6,5.6-19.2,0"/>
<circle style="fill:#CED8DD;" cx="420.8" cy="378" r="12"/>
<path style="fill:#B2BBC1;" d="M428.8,370c4.8,4.8,4.8,12,0,16.8s-12,4.8-16.8,0"/>
<path style="opacity:0.2;fill:#888F91;enable-background:new    ;" d="M425.6,378c0,3.2-2.4,6.4-5.6,6.4s-5.6-3.2-5.6-6.4
	c0-3.2,2.4-5.6,5.6-5.6S425.6,375.6,425.6,378z"/>
<circle style="fill:#E7EFF2;" cx="420.8" cy="378" r="5.6"/>
<path style="fill:#DAE6EA;" d="M420.8,373.2c3.2,0,5.6,2.4,5.6,5.6s-2.4,5.6-5.6,5.6"/>
<path style="fill:#666E70;" d="M420.8,366.8c-0.8,0-0.8,0-1.6,0c0,1.6,0.8,3.2,1.6,3.2c0.8,0,1.6-1.6,1.6-3.2
	C421.6,366.8,420.8,366.8,420.8,366.8z"/>
<path style="fill:#535A5B;" d="M420.8,370c0.8,0,1.6-1.6,1.6-3.2c-0.8,0-0.8,0-1.6,0"/>
<path style="fill:#666E70;" d="M419.2,390c0.8,0,2.4,0,3.2,0c0-1.6-0.8-3.2-1.6-3.2S419.2,388.4,419.2,390z"/>
<path style="fill:#535A5B;" d="M421.6,390c0-1.6-0.8-3.2-1.6-3.2"/>
<path style="fill:#666E70;" d="M411.2,371.6c1.6,0.8,2.4,1.6,3.2,0.8c0.8-0.8,0-1.6-0.8-3.2C412.8,370,412,370.8,411.2,371.6z"/>
<path style="fill:#535A5B;" d="M414.4,372.4c0.8-0.8,0-1.6-0.8-3.2"/>
<path style="fill:#666E70;" d="M429.6,385.2c-1.6-0.8-2.4-0.8-3.2-0.8c-0.8,0.8,0,1.6,0.8,3.2c0.8,0,0.8-0.8,1.6-0.8
	C428.8,386,429.6,386,429.6,385.2z"/>
<path style="fill:#535A5B;" d="M428.8,386.8c0,0,0.8-0.8,0.8-1.6c-1.6-0.8-2.4-0.8-3.2-0.8"/>
<path style="fill:#666E70;" d="M408.8,379.6c1.6,0,3.2-0.8,3.2-1.6s-1.6-1.6-3.2-1.6c0,0.8,0,0.8,0,1.6
	C408.8,378.8,408.8,379.6,408.8,379.6z"/>
<path style="fill:#535A5B;" d="M412,378c0-0.8-1.6-1.6-3.2-1.6c0,0.8,0,0.8,0,1.6"/>
<path style="fill:#666E70;" d="M428.8,378c0,0.8,1.6,1.6,3.2,1.6c0-0.8,0-2.4,0-3.2C430.4,377.2,428.8,378,428.8,378z"/>
<path style="fill:#535A5B;" d="M432,376.4c-1.6,0-3.2,0.8-3.2,1.6"/>
<path style="fill:#666E70;" d="M411.2,385.2c0.8,0.8,1.6,1.6,2.4,2.4c0.8-1.6,1.6-2.4,0.8-3.2C413.6,384.4,412.8,384.4,411.2,385.2z
	"/>
<path style="fill:#535A5B;" d="M413.6,387.6c0.8-1.6,1.6-2.4,0.8-3.2"/>
<path style="fill:#666E70;" d="M427.2,369.2c-0.8,1.6-1.6,2.4-0.8,3.2c0.8,0.8,1.6,0,3.2-0.8C428.8,370.8,428,370,427.2,369.2z"/>
<path style="fill:#535A5B;" d="M427.2,369.2c-0.8,1.6-1.6,2.4-0.8,3.2"/>
<g>
</g>
<g>
</g>
<g>
</g>
<g>
</g>
<g>
</g>
<g>
</g>
<g>
</g>
<g>
</g>
<g>
</g>
<g>
</g>
<g>
</g>
<g>
</g>
<g>
</g>
<g>
</g>
<g>
</g>
</svg>
